<svg width="20" height="21" viewBox="0 0 20 21" fill="none" xmlns="http://www.w3.org/2000/svg">
<path d="M7.5 8.94866C7.96024 8.94866 8.33333 8.57557 8.33333 8.11533C7.22222 6.28198 5.5 3.1153 5.5 3.1153L2.5 8.11533C2.5 8.57557 2.8731 8.94866 3.33333 8.94866H7.5Z" stroke="black" stroke-width="0.8" stroke-linecap="round" stroke-linejoin="round"/>
<path d="M9 12.6153L3 17.6153" stroke="black" stroke-width="0.8" stroke-linecap="round" stroke-linejoin="round"/>
<path d="M16.6667 3.11533H12.5C12.0398 3.11533 11.6667 3.48842 11.6667 3.94866V8.11533C11.6667 8.57556 12.0398 8.94866 12.5 8.94866H16.6667C17.1269 8.94866 17.5 8.57556 17.5 8.11533V3.94866C17.5 3.48842 17.1269 3.11533 16.6667 3.11533Z" stroke="black" stroke-width="0.8" stroke-linecap="round" stroke-linejoin="round"/>
<circle cx="14.5849" cy="15.2003" r="2.915" stroke="black" stroke-width="0.8"/>
</svg>
