<svg width="20" height="21" viewBox="0 0 20 21" fill="none" xmlns="http://www.w3.org/2000/svg">
<path d="M1.66667 5.61532C1.66667 4.73126 2.01786 3.88341 2.64298 3.25829C3.2681 2.63317 4.11595 2.28198 5 2.28198H15C15.8841 2.28198 16.7319 2.63317 17.357 3.25829C17.9821 3.88341 18.3333 4.73126 18.3333 5.61532V15.6153C18.3333 16.4994 17.9821 17.3472 17.357 17.9723C16.7319 18.5975 15.8841 18.9486 15 18.9486H5C4.11595 18.9486 3.2681 18.5975 2.64298 17.9723C2.01786 17.3472 1.66667 16.4994 1.66667 15.6153V5.61532Z" stroke="black" stroke-width="0.8" stroke-linecap="round" stroke-linejoin="round"/>
<path d="M7 7.4747H9.51563V14.6153H10.4844V7.4747H13V6.61533H7V7.4747Z" fill="black"/>
</svg>
