<svg width="9" height="11" viewBox="0 0 9 11" fill="none" xmlns="http://www.w3.org/2000/svg">
<path d="M0.884943 11H5.23509C7.52202 11 8.74006 9.80682 8.74006 8.18608C8.74006 6.67969 7.66122 5.76989 6.50284 5.7152V5.61577C7.56179 5.37713 8.34233 4.62642 8.34233 3.42827C8.34233 1.90199 7.20881 0.818182 4.96165 0.818182H0.884943V11ZM3.03764 9.24006V6.53551H4.84233C5.87642 6.53551 6.51776 7.1321 6.51776 7.9723C6.51776 8.73793 5.99574 9.24006 4.79261 9.24006H3.03764ZM3.03764 5.07884V2.55824H4.6733C5.62784 2.55824 6.16974 3.05043 6.16974 3.78622C6.16974 4.59162 5.51349 5.07884 4.63352 5.07884H3.03764Z" fill="#646464"/>
</svg>
