<svg width="7" height="7" viewBox="0 0 7 7" fill="none" xmlns="http://www.w3.org/2000/svg">
<path d="M3.88672 3.50099L6.91991 0.467778C7.0267 0.360987 7.0267 0.187847 6.91991 0.0810696C6.81312 -0.0257075 6.63998 -0.0257211 6.53321 0.0810696L3.5 3.11428L0.466801 0.0810696C0.360011 -0.0257211 0.18687 -0.0257211 0.0800931 0.0810696C-0.026684 0.18786 -0.0266977 0.361001 0.0800931 0.467778L3.11329 3.50097L0.0800931 6.53418C-0.0266977 6.64097 -0.0266977 6.81411 0.0800931 6.92089C0.133482 6.97428 0.203468 7.00096 0.273454 7.00096C0.34344 7.00096 0.413413 6.97428 0.466815 6.92089L3.5 3.88769L6.53319 6.92089C6.58658 6.97428 6.65657 7.00096 6.72655 7.00096C6.79654 7.00096 6.86651 6.97428 6.91991 6.92089C7.0267 6.8141 7.0267 6.64096 6.91991 6.53418L3.88672 3.50099Z" fill="black"/>
</svg>
