<svg width="16" height="17" viewBox="0 0 16 17" fill="none" xmlns="http://www.w3.org/2000/svg">
<path d="M4.1479 6.56005C4.05324 6.46617 4 6.33837 4 6.20505C4 6.07173 4.05324 5.94393 4.1479 5.85005L4.3479 5.65005C4.44197 5.55239 4.57231 5.49809 4.7079 5.50005H11.8679C12.0035 5.49809 12.1338 5.55239 12.2279 5.65005L12.4279 5.85005C12.5226 5.94393 12.5758 6.07173 12.5758 6.20505C12.5758 6.33837 12.5226 6.46617 12.4279 6.56005L8.6379 10.3501C8.54717 10.4467 8.42049 10.5016 8.2879 10.5016C8.15531 10.5016 8.02863 10.4467 7.9379 10.3501L4.1479 6.56005Z" fill="black"/>
</svg>
