<svg width="10" height="10" viewBox="0 0 10 10" fill="none" xmlns="http://www.w3.org/2000/svg">
<g clip-path="url(#clip0)">
<path d="M9.87781 9.28933L7.03409 6.44561C7.58493 5.7652 7.91658 4.90062 7.91658 3.95897C7.91658 1.77649 6.14076 0.000671387 3.95828 0.000671387C1.7758 0.000671387 0 1.77647 0 3.95895C0 6.14143 1.77582 7.91725 3.9583 7.91725C4.89995 7.91725 5.76453 7.5856 6.44494 7.03476L9.28866 9.87848C9.36991 9.95973 9.47657 10.0006 9.58325 10.0006C9.68992 10.0006 9.79658 9.95973 9.87783 9.87848C10.0407 9.71557 10.0407 9.45224 9.87781 9.28933ZM3.9583 7.08392C2.23498 7.08392 0.833332 5.68227 0.833332 3.95895C0.833332 2.23563 2.23498 0.833983 3.9583 0.833983C5.68162 0.833983 7.08327 2.23563 7.08327 3.95895C7.08327 5.68227 5.6816 7.08392 3.9583 7.08392Z" fill="black"/>
</g>
<defs>
<clipPath id="clip0">
<rect width="10" height="10" fill="white"/>
</clipPath>
</defs>
</svg>
