<svg width="20" height="21" viewBox="0 0 20 21" fill="none" xmlns="http://www.w3.org/2000/svg">
<path d="M1.66667 5.61532C1.66667 4.73126 2.01786 3.88341 2.64298 3.25829C3.2681 2.63317 4.11595 2.28198 5 2.28198H15C15.8841 2.28198 16.7319 2.63317 17.357 3.25829C17.9821 3.88341 18.3333 4.73126 18.3333 5.61532V15.6153C18.3333 16.4994 17.9821 17.3472 17.357 17.9723C16.7319 18.5975 15.8841 18.9486 15 18.9486H5C4.11595 18.9486 3.2681 18.5975 2.64298 17.9723C2.01786 17.3472 1.66667 16.4994 1.66667 15.6153V5.61532Z" stroke="black" stroke-width="0.8" stroke-linecap="round" stroke-linejoin="round"/>
<path d="M7.08333 9.78199C8.23393 9.78199 9.16667 8.84925 9.16667 7.69866C9.16667 6.54807 8.23393 5.61533 7.08333 5.61533C5.93274 5.61533 5 6.54807 5 7.69866C5 8.84925 5.93274 9.78199 7.08333 9.78199Z" stroke="black" stroke-width="0.8" stroke-linecap="round" stroke-linejoin="round"/>
<path d="M12.105 11.1328L5 18.9487H15.225C16.0494 18.9487 16.84 18.6212 17.4229 18.0382C18.0058 17.4553 18.3333 16.6647 18.3333 15.8403C18.3333 15.452 18.1875 15.0778 17.925 14.7903L14.5667 11.1278C14.4101 10.9571 14.2198 10.8208 14.0076 10.7278C13.7955 10.6347 13.5664 10.5869 13.3347 10.5874C13.1031 10.5879 12.8741 10.6366 12.6624 10.7305C12.4507 10.8244 12.2608 10.9614 12.105 11.1328V11.1328Z" stroke="black" stroke-width="0.8" stroke-linecap="round" stroke-linejoin="round"/>
</svg>
