<svg width="24" height="24" viewBox="0 0 24 24" fill="none" xmlns="http://www.w3.org/2000/svg">
<path d="M7 0.5H19C19.8284 0.5 20.5 1.17157 20.5 2V18C20.5 18.8284 19.8284 19.5 19 19.5H7C6.17157 19.5 5.5 18.8284 5.5 18V2C5.5 1.17157 6.17157 0.5 7 0.5Z" stroke="#6F7BD0" stroke-linecap="round" stroke-linejoin="round"/>
<path d="M4 3.5H16C16.8284 3.5 17.5 4.17157 17.5 5V21C17.5 21.8284 16.8284 22.5 16 22.5H4C3.17157 22.5 2.5 21.8284 2.5 21V5C2.5 4.17157 3.17157 3.5 4 3.5Z" fill="white" stroke="#6F7BD0" stroke-linecap="round" stroke-linejoin="round"/>
<path d="M9.42188 16.446H10.5682V14.1364H12.8778V12.9901H10.5682V10.6847H9.42188V12.9901H7.11648V14.1364H9.42188V16.446Z" fill="#6F7BD0"/>
</svg>
