<svg width="5" height="3" viewBox="0 0 5 3" fill="none" xmlns="http://www.w3.org/2000/svg">
<path d="M0.0739496 0.530026C0.0266214 0.483084 0 0.419185 0 0.352526C0 0.285866 0.0266214 0.221967 0.0739496 0.175026L0.17395 0.0750258C0.220987 0.0261966 0.286157 -0.000957277 0.35395 2.57951e-05H3.93395C4.00174 -0.000957277 4.06691 0.0261966 4.11395 0.0750258L4.21395 0.175026C4.26128 0.221967 4.2879 0.285866 4.2879 0.352526C4.2879 0.419185 4.26128 0.483084 4.21395 0.530026L2.31895 2.42503C2.27358 2.47336 2.21024 2.50079 2.14395 2.50079C2.07766 2.50079 2.01432 2.47336 1.96895 2.42503L0.0739496 0.530026Z" fill="#323232"/>
</svg>
